<svg xmlns="http://www.w3.org/2000/svg" shape-rendering="geometricPrecision" text-rendering="geometricPrecision" image-rendering="optimizeQuality" fill-rule="evenodd" clip-rule="evenodd" viewBox="0 0 512 512.002"><path fill-rule="nonzero" d="M330.568 174.403l-57.406 81.599 57.406 81.598V174.403zM150.419 0h211.162c41.377 0 78.986 16.921 106.243 44.176C495.079 71.433 512 109.042 512 150.42v211.161c0 41.378-16.921 78.988-44.176 106.245-27.257 27.255-64.866 44.176-106.243 44.176H150.419c-41.377 0-78.986-16.921-106.243-44.176C16.921 440.569 0 402.959 0 361.581V150.42c0-41.378 16.921-78.987 44.176-106.244C71.433 16.921 109.042 0 150.419 0zm211.162 23.659H150.419c-34.847 0-66.538 14.264-89.518 37.243-22.978 22.98-37.242 54.67-37.242 89.518v211.161c0 34.849 14.264 66.539 37.242 89.519 22.98 22.978 54.671 37.243 89.518 37.243h211.162c34.847 0 66.538-14.265 89.518-37.243 22.978-22.98 37.242-54.67 37.242-89.519V150.42c0-34.848-14.264-66.538-37.242-89.518-22.98-22.979-54.671-37.243-89.518-37.243zM255.999 280.397l-77.151 109.665c-4.46 6.34-13.216 7.866-19.557 3.407-3.882-2.73-5.958-7.071-5.963-11.482h-.026V130.016c0-7.766 6.298-14.064 14.064-14.064 5.072 0 9.517 2.686 11.991 6.713l76.642 108.941 76.643-108.941a14.054 14.054 0 0111.991-6.713c7.766 0 14.064 6.298 14.064 14.064v251.971h-.026c-.005 4.411-2.081 8.752-5.963 11.482-6.341 4.459-15.098 2.933-19.557-3.407l-77.152-109.665zM181.431 337.6l57.406-81.598-57.406-81.599V337.6z"/></svg>